<svg xmlns="http://www.w3.org/2000/svg" viewBox="0 0 1200 900" width="100%" height="100%">
  <rect width="1200" height="900" fill="#B391CD" />
  <polygon points="150,450 200,300 350,200 450,220 550,150 750,150 900,200 1000,250 1050,350 1000,550 1100,650 1000,750 850,800 650,750 450,800 300,750 180,650" fill="#916FA6" stroke="#916FA6" stroke-width="140" stroke-linejoin="round" transform="translate(30, 80)" />
  <polygon points="150,450 200,300 350,200 450,220 550,150 750,150 900,200 1000,250 1050,350 1000,550 1100,650 1000,750 850,800 650,750 450,800 300,750 180,650" fill="#5a3931" stroke="#5a3931" stroke-width="140" stroke-linejoin="round" transform="translate(0, 80)" />
  <polygon points="150,450 200,300 350,200 450,220 550,150 750,150 900,200 1000,250 1050,350 1000,550 1100,650 1000,750 850,800 650,750 450,800 300,750 180,650" fill="#5a3931" stroke="#5a3931" stroke-width="140" stroke-linejoin="round" transform="translate(0, 79)" />
  <polygon points="150,450 200,300 350,200 450,220 550,150 750,150 900,200 1000,250 1050,350 1000,550 1100,650 1000,750 850,800 650,750 450,800 300,750 180,650" fill="#5b3a32" stroke="#5b3a32" stroke-width="140" stroke-linejoin="round" transform="translate(0, 78)" />
  <polygon points="150,450 200,300 350,200 450,220 550,150 750,150 900,200 1000,250 1050,350 1000,550 1100,650 1000,750 850,800 650,750 450,800 300,750 180,650" fill="#5c3a32" stroke="#5c3a32" stroke-width="140" stroke-linejoin="round" transform="translate(0, 77)" />
  <polygon points="150,450 200,300 350,200 450,220 550,150 750,150 900,200 1000,250 1050,350 1000,550 1100,650 1000,750 850,800 650,750 450,800 300,750 180,650" fill="#5d3b33" stroke="#5d3b33" stroke-width="140" stroke-linejoin="round" transform="translate(0, 76)" />
  <polygon points="150,450 200,300 350,200 450,220 550,150 750,150 900,200 1000,250 1050,350 1000,550 1100,650 1000,750 850,800 650,750 450,800 300,750 180,650" fill="#5e3c34" stroke="#5e3c34" stroke-width="140" stroke-linejoin="round" transform="translate(0, 75)" />
  <polygon points="150,450 200,300 350,200 450,220 550,150 750,150 900,200 1000,250 1050,350 1000,550 1100,650 1000,750 850,800 650,750 450,800 300,750 180,650" fill="#5f3c34" stroke="#5f3c34" stroke-width="140" stroke-linejoin="round" transform="translate(0, 74)" />
  <polygon points="150,450 200,300 350,200 450,220 550,150 750,150 900,200 1000,250 1050,350 1000,550 1100,650 1000,750 850,800 650,750 450,800 300,750 180,650" fill="#603d35" stroke="#603d35" stroke-width="140" stroke-linejoin="round" transform="translate(0, 73)" />
  <polygon points="150,450 200,300 350,200 450,220 550,150 750,150 900,200 1000,250 1050,350 1000,550 1100,650 1000,750 850,800 650,750 450,800 300,750 180,650" fill="#603e35" stroke="#603e35" stroke-width="140" stroke-linejoin="round" transform="translate(0, 72)" />
  <polygon points="150,450 200,300 350,200 450,220 550,150 750,150 900,200 1000,250 1050,350 1000,550 1100,650 1000,750 850,800 650,750 450,800 300,750 180,650" fill="#613e36" stroke="#613e36" stroke-width="140" stroke-linejoin="round" transform="translate(0, 71)" />
  <polygon points="150,450 200,300 350,200 450,220 550,150 750,150 900,200 1000,250 1050,350 1000,550 1100,650 1000,750 850,800 650,750 450,800 300,750 180,650" fill="#623f37" stroke="#623f37" stroke-width="140" stroke-linejoin="round" transform="translate(0, 70)" />
  <polygon points="150,450 200,300 350,200 450,220 550,150 750,150 900,200 1000,250 1050,350 1000,550 1100,650 1000,750 850,800 650,750 450,800 300,750 180,650" fill="#634037" stroke="#634037" stroke-width="140" stroke-linejoin="round" transform="translate(0, 69)" />
  <polygon points="150,450 200,300 350,200 450,220 550,150 750,150 900,200 1000,250 1050,350 1000,550 1100,650 1000,750 850,800 650,750 450,800 300,750 180,650" fill="#644038" stroke="#644038" stroke-width="140" stroke-linejoin="round" transform="translate(0, 68)" />
  <polygon points="150,450 200,300 350,200 450,220 550,150 750,150 900,200 1000,250 1050,350 1000,550 1100,650 1000,750 850,800 650,750 450,800 300,750 180,650" fill="#654138" stroke="#654138" stroke-width="140" stroke-linejoin="round" transform="translate(0, 67)" />
  <polygon points="150,450 200,300 350,200 450,220 550,150 750,150 900,200 1000,250 1050,350 1000,550 1100,650 1000,750 850,800 650,750 450,800 300,750 180,650" fill="#664239" stroke="#664239" stroke-width="140" stroke-linejoin="round" transform="translate(0, 66)" />
  <polygon points="150,450 200,300 350,200 450,220 550,150 750,150 900,200 1000,250 1050,350 1000,550 1100,650 1000,750 850,800 650,750 450,800 300,750 180,650" fill="#66423a" stroke="#66423a" stroke-width="140" stroke-linejoin="round" transform="translate(0, 65)" />
  <polygon points="150,450 200,300 350,200 450,220 550,150 750,150 900,200 1000,250 1050,350 1000,550 1100,650 1000,750 850,800 650,750 450,800 300,750 180,650" fill="#67433a" stroke="#67433a" stroke-width="140" stroke-linejoin="round" transform="translate(0, 64)" />
  <polygon points="150,450 200,300 350,200 450,220 550,150 750,150 900,200 1000,250 1050,350 1000,550 1100,650 1000,750 850,800 650,750 450,800 300,750 180,650" fill="#68443b" stroke="#68443b" stroke-width="140" stroke-linejoin="round" transform="translate(0, 63)" />
  <polygon points="150,450 200,300 350,200 450,220 550,150 750,150 900,200 1000,250 1050,350 1000,550 1100,650 1000,750 850,800 650,750 450,800 300,750 180,650" fill="#69443b" stroke="#69443b" stroke-width="140" stroke-linejoin="round" transform="translate(0, 62)" />
  <polygon points="150,450 200,300 350,200 450,220 550,150 750,150 900,200 1000,250 1050,350 1000,550 1100,650 1000,750 850,800 650,750 450,800 300,750 180,650" fill="#6a453c" stroke="#6a453c" stroke-width="140" stroke-linejoin="round" transform="translate(0, 61)" />
  <polygon points="150,450 200,300 350,200 450,220 550,150 750,150 900,200 1000,250 1050,350 1000,550 1100,650 1000,750 850,800 650,750 450,800 300,750 180,650" fill="#6b463d" stroke="#6b463d" stroke-width="140" stroke-linejoin="round" transform="translate(0, 60)" />
  <polygon points="150,450 200,300 350,200 450,220 550,150 750,150 900,200 1000,250 1050,350 1000,550 1100,650 1000,750 850,800 650,750 450,800 300,750 180,650" fill="#6c463d" stroke="#6c463d" stroke-width="140" stroke-linejoin="round" transform="translate(0, 59)" />
  <polygon points="150,450 200,300 350,200 450,220 550,150 750,150 900,200 1000,250 1050,350 1000,550 1100,650 1000,750 850,800 650,750 450,800 300,750 180,650" fill="#6c473e" stroke="#6c473e" stroke-width="140" stroke-linejoin="round" transform="translate(0, 58)" />
  <polygon points="150,450 200,300 350,200 450,220 550,150 750,150 900,200 1000,250 1050,350 1000,550 1100,650 1000,750 850,800 650,750 450,800 300,750 180,650" fill="#6d483e" stroke="#6d483e" stroke-width="140" stroke-linejoin="round" transform="translate(0, 57)" />
  <polygon points="150,450 200,300 350,200 450,220 550,150 750,150 900,200 1000,250 1050,350 1000,550 1100,650 1000,750 850,800 650,750 450,800 300,750 180,650" fill="#6e483f" stroke="#6e483f" stroke-width="140" stroke-linejoin="round" transform="translate(0, 56)" />
  <polygon points="150,450 200,300 350,200 450,220 550,150 750,150 900,200 1000,250 1050,350 1000,550 1100,650 1000,750 850,800 650,750 450,800 300,750 180,650" fill="#6f4940" stroke="#6f4940" stroke-width="140" stroke-linejoin="round" transform="translate(0, 55)" />
  <polygon points="150,450 200,300 350,200 450,220 550,150 750,150 900,200 1000,250 1050,350 1000,550 1100,650 1000,750 850,800 650,750 450,800 300,750 180,650" fill="#704a40" stroke="#704a40" stroke-width="140" stroke-linejoin="round" transform="translate(0, 54)" />
  <polygon points="150,450 200,300 350,200 450,220 550,150 750,150 900,200 1000,250 1050,350 1000,550 1100,650 1000,750 850,800 650,750 450,800 300,750 180,650" fill="#714a41" stroke="#714a41" stroke-width="140" stroke-linejoin="round" transform="translate(0, 53)" />
  <polygon points="150,450 200,300 350,200 450,220 550,150 750,150 900,200 1000,250 1050,350 1000,550 1100,650 1000,750 850,800 650,750 450,800 300,750 180,650" fill="#724b41" stroke="#724b41" stroke-width="140" stroke-linejoin="round" transform="translate(0, 52)" />
  <polygon points="150,450 200,300 350,200 450,220 550,150 750,150 900,200 1000,250 1050,350 1000,550 1100,650 1000,750 850,800 650,750 450,800 300,750 180,650" fill="#724c42" stroke="#724c42" stroke-width="140" stroke-linejoin="round" transform="translate(0, 51)" />
  <polygon points="150,450 200,300 350,200 450,220 550,150 750,150 900,200 1000,250 1050,350 1000,550 1100,650 1000,750 850,800 650,750 450,800 300,750 180,650" fill="#734c43" stroke="#734c43" stroke-width="140" stroke-linejoin="round" transform="translate(0, 50)" />
  <polygon points="150,450 200,300 350,200 450,220 550,150 750,150 900,200 1000,250 1050,350 1000,550 1100,650 1000,750 850,800 650,750 450,800 300,750 180,650" fill="#744d43" stroke="#744d43" stroke-width="140" stroke-linejoin="round" transform="translate(0, 49)" />
  <polygon points="150,450 200,300 350,200 450,220 550,150 750,150 900,200 1000,250 1050,350 1000,550 1100,650 1000,750 850,800 650,750 450,800 300,750 180,650" fill="#754e44" stroke="#754e44" stroke-width="140" stroke-linejoin="round" transform="translate(0, 48)" />
  <polygon points="150,450 200,300 350,200 450,220 550,150 750,150 900,200 1000,250 1050,350 1000,550 1100,650 1000,750 850,800 650,750 450,800 300,750 180,650" fill="#764e44" stroke="#764e44" stroke-width="140" stroke-linejoin="round" transform="translate(0, 47)" />
  <polygon points="150,450 200,300 350,200 450,220 550,150 750,150 900,200 1000,250 1050,350 1000,550 1100,650 1000,750 850,800 650,750 450,800 300,750 180,650" fill="#774f45" stroke="#774f45" stroke-width="140" stroke-linejoin="round" transform="translate(0, 46)" />
  <polygon points="150,450 200,300 350,200 450,220 550,150 750,150 900,200 1000,250 1050,350 1000,550 1100,650 1000,750 850,800 650,750 450,800 300,750 180,650" fill="#785046" stroke="#785046" stroke-width="140" stroke-linejoin="round" transform="translate(0, 45)" />
  <polygon points="150,450 200,300 350,200 450,220 550,150 750,150 900,200 1000,250 1050,350 1000,550 1100,650 1000,750 850,800 650,750 450,800 300,750 180,650" fill="#785046" stroke="#785046" stroke-width="140" stroke-linejoin="round" transform="translate(0, 44)" />
  <polygon points="150,450 200,300 350,200 450,220 550,150 750,150 900,200 1000,250 1050,350 1000,550 1100,650 1000,750 850,800 650,750 450,800 300,750 180,650" fill="#795147" stroke="#795147" stroke-width="140" stroke-linejoin="round" transform="translate(0, 43)" />
  <polygon points="150,450 200,300 350,200 450,220 550,150 750,150 900,200 1000,250 1050,350 1000,550 1100,650 1000,750 850,800 650,750 450,800 300,750 180,650" fill="#7a5247" stroke="#7a5247" stroke-width="140" stroke-linejoin="round" transform="translate(0, 42)" />
  <polygon points="150,450 200,300 350,200 450,220 550,150 750,150 900,200 1000,250 1050,350 1000,550 1100,650 1000,750 850,800 650,750 450,800 300,750 180,650" fill="#7b5248" stroke="#7b5248" stroke-width="140" stroke-linejoin="round" transform="translate(0, 41)" />
  <polygon points="150,450 200,300 350,200 450,220 550,150 750,150 900,200 1000,250 1050,350 1000,550 1100,650 1000,750 850,800 650,750 450,800 300,750 180,650" fill="#7c5349" stroke="#7c5349" stroke-width="140" stroke-linejoin="round" transform="translate(0, 40)" />
  <polygon points="150,450 200,300 350,200 450,220 550,150 750,150 900,200 1000,250 1050,350 1000,550 1100,650 1000,750 850,800 650,750 450,800 300,750 180,650" fill="#7d5449" stroke="#7d5449" stroke-width="140" stroke-linejoin="round" transform="translate(0, 39)" />
  <polygon points="150,450 200,300 350,200 450,220 550,150 750,150 900,200 1000,250 1050,350 1000,550 1100,650 1000,750 850,800 650,750 450,800 300,750 180,650" fill="#7e544a" stroke="#7e544a" stroke-width="140" stroke-linejoin="round" transform="translate(0, 38)" />
  <polygon points="150,450 200,300 350,200 450,220 550,150 750,150 900,200 1000,250 1050,350 1000,550 1100,650 1000,750 850,800 650,750 450,800 300,750 180,650" fill="#7e554a" stroke="#7e554a" stroke-width="140" stroke-linejoin="round" transform="translate(0, 37)" />
  <polygon points="150,450 200,300 350,200 450,220 550,150 750,150 900,200 1000,250 1050,350 1000,550 1100,650 1000,750 850,800 650,750 450,800 300,750 180,650" fill="#7f564b" stroke="#7f564b" stroke-width="140" stroke-linejoin="round" transform="translate(0, 36)" />
  <polygon points="150,450 200,300 350,200 450,220 550,150 750,150 900,200 1000,250 1050,350 1000,550 1100,650 1000,750 850,800 650,750 450,800 300,750 180,650" fill="#80564c" stroke="#80564c" stroke-width="140" stroke-linejoin="round" transform="translate(0, 35)" />
  <polygon points="150,450 200,300 350,200 450,220 550,150 750,150 900,200 1000,250 1050,350 1000,550 1100,650 1000,750 850,800 650,750 450,800 300,750 180,650" fill="#81574c" stroke="#81574c" stroke-width="140" stroke-linejoin="round" transform="translate(0, 34)" />
  <polygon points="150,450 200,300 350,200 450,220 550,150 750,150 900,200 1000,250 1050,350 1000,550 1100,650 1000,750 850,800 650,750 450,800 300,750 180,650" fill="#82584d" stroke="#82584d" stroke-width="140" stroke-linejoin="round" transform="translate(0, 33)" />
  <polygon points="150,450 200,300 350,200 450,220 550,150 750,150 900,200 1000,250 1050,350 1000,550 1100,650 1000,750 850,800 650,750 450,800 300,750 180,650" fill="#83584d" stroke="#83584d" stroke-width="140" stroke-linejoin="round" transform="translate(0, 32)" />
  <polygon points="150,450 200,300 350,200 450,220 550,150 750,150 900,200 1000,250 1050,350 1000,550 1100,650 1000,750 850,800 650,750 450,800 300,750 180,650" fill="#84594e" stroke="#84594e" stroke-width="140" stroke-linejoin="round" transform="translate(0, 31)" />
  <polygon points="150,450 200,300 350,200 450,220 550,150 750,150 900,200 1000,250 1050,350 1000,550 1100,650 1000,750 850,800 650,750 450,800 300,750 180,650" fill="#79a750" stroke="#79a750" stroke-width="140" stroke-linejoin="round" transform="translate(0, 30)" />
  <polygon points="150,450 200,300 350,200 450,220 550,150 750,150 900,200 1000,250 1050,350 1000,550 1100,650 1000,750 850,800 650,750 450,800 300,750 180,650" fill="#7aa850" stroke="#7aa850" stroke-width="140" stroke-linejoin="round" transform="translate(0, 29)" />
  <polygon points="150,450 200,300 350,200 450,220 550,150 750,150 900,200 1000,250 1050,350 1000,550 1100,650 1000,750 850,800 650,750 450,800 300,750 180,650" fill="#7baa51" stroke="#7baa51" stroke-width="140" stroke-linejoin="round" transform="translate(0, 28)" />
  <polygon points="150,450 200,300 350,200 450,220 550,150 750,150 900,200 1000,250 1050,350 1000,550 1100,650 1000,750 850,800 650,750 450,800 300,750 180,650" fill="#7cab52" stroke="#7cab52" stroke-width="140" stroke-linejoin="round" transform="translate(0, 27)" />
  <polygon points="150,450 200,300 350,200 450,220 550,150 750,150 900,200 1000,250 1050,350 1000,550 1100,650 1000,750 850,800 650,750 450,800 300,750 180,650" fill="#7dad52" stroke="#7dad52" stroke-width="140" stroke-linejoin="round" transform="translate(0, 26)" />
  <polygon points="150,450 200,300 350,200 450,220 550,150 750,150 900,200 1000,250 1050,350 1000,550 1100,650 1000,750 850,800 650,750 450,800 300,750 180,650" fill="#7eae53" stroke="#7eae53" stroke-width="140" stroke-linejoin="round" transform="translate(0, 25)" />
  <polygon points="150,450 200,300 350,200 450,220 550,150 750,150 900,200 1000,250 1050,350 1000,550 1100,650 1000,750 850,800 650,750 450,800 300,750 180,650" fill="#7fb054" stroke="#7fb054" stroke-width="140" stroke-linejoin="round" transform="translate(0, 24)" />
  <polygon points="150,450 200,300 350,200 450,220 550,150 750,150 900,200 1000,250 1050,350 1000,550 1100,650 1000,750 850,800 650,750 450,800 300,750 180,650" fill="#80b155" stroke="#80b155" stroke-width="140" stroke-linejoin="round" transform="translate(0, 23)" />
  <polygon points="150,450 200,300 350,200 450,220 550,150 750,150 900,200 1000,250 1050,350 1000,550 1100,650 1000,750 850,800 650,750 450,800 300,750 180,650" fill="#81b355" stroke="#81b355" stroke-width="140" stroke-linejoin="round" transform="translate(0, 22)" />
  <polygon points="150,450 200,300 350,200 450,220 550,150 750,150 900,200 1000,250 1050,350 1000,550 1100,650 1000,750 850,800 650,750 450,800 300,750 180,650" fill="#82b456" stroke="#82b456" stroke-width="140" stroke-linejoin="round" transform="translate(0, 21)" />
  <polygon points="150,450 200,300 350,200 450,220 550,150 750,150 900,200 1000,250 1050,350 1000,550 1100,650 1000,750 850,800 650,750 450,800 300,750 180,650" fill="#83b657" stroke="#83b657" stroke-width="140" stroke-linejoin="round" transform="translate(0, 20)" />
  <polygon points="150,450 200,300 350,200 450,220 550,150 750,150 900,200 1000,250 1050,350 1000,550 1100,650 1000,750 850,800 650,750 450,800 300,750 180,650" fill="#84b758" stroke="#84b758" stroke-width="140" stroke-linejoin="round" transform="translate(0, 19)" />
  <polygon points="150,450 200,300 350,200 450,220 550,150 750,150 900,200 1000,250 1050,350 1000,550 1100,650 1000,750 850,800 650,750 450,800 300,750 180,650" fill="#85b958" stroke="#85b958" stroke-width="140" stroke-linejoin="round" transform="translate(0, 18)" />
  <polygon points="150,450 200,300 350,200 450,220 550,150 750,150 900,200 1000,250 1050,350 1000,550 1100,650 1000,750 850,800 650,750 450,800 300,750 180,650" fill="#86ba59" stroke="#86ba59" stroke-width="140" stroke-linejoin="round" transform="translate(0, 17)" />
  <polygon points="150,450 200,300 350,200 450,220 550,150 750,150 900,200 1000,250 1050,350 1000,550 1100,650 1000,750 850,800 650,750 450,800 300,750 180,650" fill="#87bc5a" stroke="#87bc5a" stroke-width="140" stroke-linejoin="round" transform="translate(0, 16)" />
  <polygon points="150,450 200,300 350,200 450,220 550,150 750,150 900,200 1000,250 1050,350 1000,550 1100,650 1000,750 850,800 650,750 450,800 300,750 180,650" fill="#89bd5b" stroke="#89bd5b" stroke-width="140" stroke-linejoin="round" transform="translate(0, 15)" />
  <polygon points="150,450 200,300 350,200 450,220 550,150 750,150 900,200 1000,250 1050,350 1000,550 1100,650 1000,750 850,800 650,750 450,800 300,750 180,650" fill="#8abf5b" stroke="#8abf5b" stroke-width="140" stroke-linejoin="round" transform="translate(0, 14)" />
  <polygon points="150,450 200,300 350,200 450,220 550,150 750,150 900,200 1000,250 1050,350 1000,550 1100,650 1000,750 850,800 650,750 450,800 300,750 180,650" fill="#8bc05c" stroke="#8bc05c" stroke-width="140" stroke-linejoin="round" transform="translate(0, 13)" />
  <polygon points="150,450 200,300 350,200 450,220 550,150 750,150 900,200 1000,250 1050,350 1000,550 1100,650 1000,750 850,800 650,750 450,800 300,750 180,650" fill="#8cc25d" stroke="#8cc25d" stroke-width="140" stroke-linejoin="round" transform="translate(0, 12)" />
  <polygon points="150,450 200,300 350,200 450,220 550,150 750,150 900,200 1000,250 1050,350 1000,550 1100,650 1000,750 850,800 650,750 450,800 300,750 180,650" fill="#8dc35d" stroke="#8dc35d" stroke-width="140" stroke-linejoin="round" transform="translate(0, 11)" />
  <polygon points="150,450 200,300 350,200 450,220 550,150 750,150 900,200 1000,250 1050,350 1000,550 1100,650 1000,750 850,800 650,750 450,800 300,750 180,650" fill="#8ec55e" stroke="#8ec55e" stroke-width="140" stroke-linejoin="round" transform="translate(0, 10)" />
  <polygon points="150,450 200,300 350,200 450,220 550,150 750,150 900,200 1000,250 1050,350 1000,550 1100,650 1000,750 850,800 650,750 450,800 300,750 180,650" fill="#8fc65f" stroke="#8fc65f" stroke-width="140" stroke-linejoin="round" transform="translate(0, 9)" />
  <polygon points="150,450 200,300 350,200 450,220 550,150 750,150 900,200 1000,250 1050,350 1000,550 1100,650 1000,750 850,800 650,750 450,800 300,750 180,650" fill="#90c860" stroke="#90c860" stroke-width="140" stroke-linejoin="round" transform="translate(0, 8)" />
  <polygon points="150,450 200,300 350,200 450,220 550,150 750,150 900,200 1000,250 1050,350 1000,550 1100,650 1000,750 850,800 650,750 450,800 300,750 180,650" fill="#91c960" stroke="#91c960" stroke-width="140" stroke-linejoin="round" transform="translate(0, 7)" />
  <polygon points="150,450 200,300 350,200 450,220 550,150 750,150 900,200 1000,250 1050,350 1000,550 1100,650 1000,750 850,800 650,750 450,800 300,750 180,650" fill="#92cb61" stroke="#92cb61" stroke-width="140" stroke-linejoin="round" transform="translate(0, 6)" />
  <polygon points="150,450 200,300 350,200 450,220 550,150 750,150 900,200 1000,250 1050,350 1000,550 1100,650 1000,750 850,800 650,750 450,800 300,750 180,650" fill="#93cc62" stroke="#93cc62" stroke-width="140" stroke-linejoin="round" transform="translate(0, 5)" />
  <polygon points="150,450 200,300 350,200 450,220 550,150 750,150 900,200 1000,250 1050,350 1000,550 1100,650 1000,750 850,800 650,750 450,800 300,750 180,650" fill="#94ce63" stroke="#94ce63" stroke-width="140" stroke-linejoin="round" transform="translate(0, 4)" />
  <polygon points="150,450 200,300 350,200 450,220 550,150 750,150 900,200 1000,250 1050,350 1000,550 1100,650 1000,750 850,800 650,750 450,800 300,750 180,650" fill="#95cf63" stroke="#95cf63" stroke-width="140" stroke-linejoin="round" transform="translate(0, 3)" />
  <polygon points="150,450 200,300 350,200 450,220 550,150 750,150 900,200 1000,250 1050,350 1000,550 1100,650 1000,750 850,800 650,750 450,800 300,750 180,650" fill="#96d164" stroke="#96d164" stroke-width="140" stroke-linejoin="round" transform="translate(0, 2)" />
  <polygon points="150,450 200,300 350,200 450,220 550,150 750,150 900,200 1000,250 1050,350 1000,550 1100,650 1000,750 850,800 650,750 450,800 300,750 180,650" fill="#97d265" stroke="#97d265" stroke-width="140" stroke-linejoin="round" transform="translate(0, 1)" />
  <polygon points="150,450 200,300 350,200 450,220 550,150 750,150 900,200 1000,250 1050,350 1000,550 1100,650 1000,750 850,800 650,750 450,800 300,750 180,650" fill="#A1DF74" stroke="#A1DF74" stroke-width="140" stroke-linejoin="round" transform="translate(0, 0)" />
  <rect x="200" y="680" width="20" height="40" fill="#79A750" rx="10" />
  <rect x="225" y="680" width="15" height="25" fill="#A1DF74" rx="7.5" />
  <rect x="350" y="800" width="20" height="50" fill="#79A750" rx="10" />
  <rect x="375" y="800" width="15" height="35" fill="#A1DF74" rx="7.5" />
  <rect x="650" y="780" width="20" height="45" fill="#79A750" rx="10" />
  <rect x="675" y="780" width="15" height="30" fill="#A1DF74" rx="7.5" />
  <rect x="900" y="780" width="20" height="60" fill="#79A750" rx="10" />
  <rect x="925" y="780" width="15" height="45" fill="#A1DF74" rx="7.5" />
  <rect x="1050" y="650" width="20" height="45" fill="#79A750" rx="10" />
  <rect x="1075" y="650" width="15" height="30" fill="#A1DF74" rx="7.5" />
  <rect x="100" y="500" width="20" height="40" fill="#79A750" rx="10" />
  <rect x="125" y="500" width="15" height="25" fill="#A1DF74" rx="7.5" />
  <rect x="220" y="300" width="20" height="30" fill="#79A750" rx="10" />
  <rect x="245" y="300" width="15" height="15" fill="#A1DF74" rx="7.5" />
  <path d="M 300 320 L 450 450 L 500 550 L 700 550 L 750 600 M 500 550 L 400 650 M 450 450 L 600 280 L 700 300 M 700 550 L 700 300 M 700 300 L 850 400" fill="none" stroke="#D5FFB3" stroke-width="25" stroke-linecap="round" stroke-linejoin="round" />
  <rect x="345" y="190" width="10" height="20" fill="#7D5241" />  <rect x="335" y="160" width="30" height="30" fill="#5E9944" rx="5" />  <rect x="345" y="155" width="20" height="20" fill="#7CCE5B" rx="5" />
  <rect x="445" y="140" width="10" height="20" fill="#7D5241" />  <rect x="435" y="110" width="30" height="30" fill="#5E9944" rx="5" />  <rect x="445" y="105" width="20" height="20" fill="#7CCE5B" rx="5" />
  <rect x="595" y="190" width="10" height="20" fill="#7D5241" />  <rect x="585" y="160" width="30" height="30" fill="#5E9944" rx="5" />  <rect x="595" y="155" width="20" height="20" fill="#7CCE5B" rx="5" />
  <rect x="795" y="210" width="10" height="20" fill="#7D5241" />  <rect x="785" y="180" width="30" height="30" fill="#5E9944" rx="5" />  <rect x="795" y="175" width="20" height="20" fill="#7CCE5B" rx="5" />
  <rect x="945" y="270" width="10" height="20" fill="#7D5241" />  <rect x="935" y="240" width="30" height="30" fill="#5E9944" rx="5" />  <rect x="945" y="235" width="20" height="20" fill="#7CCE5B" rx="5" />
  <rect x="995" y="440" width="10" height="20" fill="#7D5241" />  <rect x="985" y="410" width="30" height="30" fill="#5E9944" rx="5" />  <rect x="995" y="405" width="20" height="20" fill="#7CCE5B" rx="5" />
  <rect x="945" y="590" width="10" height="20" fill="#7D5241" />  <rect x="935" y="560" width="30" height="30" fill="#5E9944" rx="5" />  <rect x="945" y="555" width="20" height="20" fill="#7CCE5B" rx="5" />
  <rect x="845" y="690" width="10" height="20" fill="#7D5241" />  <rect x="835" y="660" width="30" height="30" fill="#5E9944" rx="5" />  <rect x="845" y="655" width="20" height="20" fill="#7CCE5B" rx="5" />
  <rect x="595" y="740" width="10" height="20" fill="#7D5241" />  <rect x="585" y="710" width="30" height="30" fill="#5E9944" rx="5" />  <rect x="595" y="705" width="20" height="20" fill="#7CCE5B" rx="5" />
  <rect x="445" y="790" width="10" height="20" fill="#7D5241" />  <rect x="435" y="760" width="30" height="30" fill="#5E9944" rx="5" />  <rect x="445" y="755" width="20" height="20" fill="#7CCE5B" rx="5" />
  <rect x="245" y="640" width="10" height="20" fill="#7D5241" />  <rect x="235" y="610" width="30" height="30" fill="#5E9944" rx="5" />  <rect x="245" y="605" width="20" height="20" fill="#7CCE5B" rx="5" />
  <rect x="145" y="540" width="10" height="20" fill="#7D5241" />  <rect x="135" y="510" width="30" height="30" fill="#5E9944" rx="5" />  <rect x="145" y="505" width="20" height="20" fill="#7CCE5B" rx="5" />
  <rect x="195" y="390" width="10" height="20" fill="#7D5241" />  <rect x="185" y="360" width="30" height="30" fill="#5E9944" rx="5" />  <rect x="195" y="355" width="20" height="20" fill="#7CCE5B" rx="5" />
  <rect x="295" y="490" width="10" height="20" fill="#7D5241" />  <rect x="285" y="460" width="30" height="30" fill="#5E9944" rx="5" />  <rect x="295" y="455" width="20" height="20" fill="#7CCE5B" rx="5" />
  <rect x="595" y="390" width="10" height="20" fill="#7D5241" />  <rect x="585" y="360" width="30" height="30" fill="#5E9944" rx="5" />  <rect x="595" y="355" width="20" height="20" fill="#7CCE5B" rx="5" />
  <rect x="795" y="440" width="10" height="20" fill="#7D5241" />  <rect x="785" y="410" width="30" height="30" fill="#5E9944" rx="5" />  <rect x="795" y="405" width="20" height="20" fill="#7CCE5B" rx="5" />
  <rect x="545" y="540" width="10" height="20" fill="#7D5241" />  <rect x="535" y="510" width="30" height="30" fill="#5E9944" rx="5" />  <rect x="545" y="505" width="20" height="20" fill="#7CCE5B" rx="5" />
  <rect x="745" y="340" width="10" height="20" fill="#7D5241" />  <rect x="735" y="310" width="30" height="30" fill="#5E9944" rx="5" />  <rect x="745" y="305" width="20" height="20" fill="#7CCE5B" rx="5" />
  <circle cx="400" cy="250" r="5" fill="#FF4F81" />
  <circle cx="480" cy="240" r="5" fill="#FF4F81" />
  <circle cx="700" cy="220" r="5" fill="#FF4F81" />
  <circle cx="900" cy="250" r="5" fill="#FF4F81" />
  <circle cx="920" cy="400" r="5" fill="#FF4F81" />
  <circle cx="800" cy="600" r="5" fill="#FF4F81" />
  <circle cx="600" cy="600" r="5" fill="#FF4F81" />
  <circle cx="450" cy="550" r="5" fill="#FF4F81" />
  <circle cx="300" cy="450" r="5" fill="#FF4F81" />
  <circle cx="280" cy="600" r="5" fill="#FF4F81" />
  <circle cx="200" cy="500" r="5" fill="#FF4F81" />
  <circle cx="350" cy="700" r="5" fill="#FF4F81" />
  <circle cx="750" cy="700" r="5" fill="#FF4F81" />
  <circle cx="1000" cy="350" r="5" fill="#FF4F81" />
  <polygon points="280,250 320,250 320,320 280,320" fill="#8C9FB1" />
  <polygon points="320,250 340,230 340,300 320,320" fill="#6F8294" />
  <polygon points="280,250 300,230 340,230 320,250" fill="#BCC9D4" />
  <polygon points="290,220 310,220 310,250 290,250" fill="#A2B5C7" />
  <polygon points="310,220 320,210 320,240 310,250" fill="#8599A8" />
  <polygon points="290,220 300,210 320,210 310,220" fill="#E2E8ED" />
  <polygon points="430,420 490,420 490,460 430,460" fill="#AD8A6E" />
  <polygon points="490,420 520,390 520,430 490,460" fill="#8C6B52" />
  <polygon points="430,420 460,390 520,390 490,420" fill="#D1B398" />
  <polygon points="440,390 480,390 480,420 440,420" fill="#C2A084" />
  <polygon points="480,390 500,370 500,400 480,420" fill="#A38266" />
  <polygon points="440,390 460,370 500,370 480,390" fill="#E8D2BD" />
  <rect x="445" y="440" width="8" height="12" fill="#4D3B2F" rx="2" />
  <rect x="465" y="440" width="8" height="12" fill="#4D3B2F" rx="2" />
  <polygon points="600,250 670,250 670,300 600,300" fill="#708C89" />
  <polygon points="670,250 700,220 700,270 670,300" fill="#536E6B" />
  <polygon points="600,250 630,220 700,220 670,250" fill="#A0B8B5" />
  <polygon points="610,210 625,210 625,250 610,250" fill="#8BA7A5" />
  <polygon points="625,210 635,200 635,240 625,250" fill="#6A8785" />
  <polygon points="610,210 620,200 635,200 625,210" fill="#BCCFD0" />
  <polygon points="635,220 650,220 650,250 635,250" fill="#8BA7A5" />
  <polygon points="650,220 660,210 660,240 650,250" fill="#6A8785" />
  <polygon points="635,220 645,210 660,210 650,220" fill="#BCCFD0" />
  <polygon points="830,400 880,400 880,440 830,440" fill="#AD6F51" />
  <polygon points="880,400 910,370 910,410 880,440" fill="#875239" />
  <polygon points="830,400 860,370 910,370 880,400" fill="#D69C81" />
  <polygon points="840,370 870,370 870,400 840,400" fill="#C28365" />
  <polygon points="870,370 890,350 890,380 870,400" fill="#9E654A" />
  <polygon points="840,370 860,350 890,350 870,370" fill="#E8B49C" />
  <polygon points="850,350 860,350 860,370 850,370" fill="#D99A7E" />
  <polygon points="860,350 870,340 870,360 860,370" fill="#B5785C" />
  <polygon points="850,350 860,340 870,340 860,350" fill="#F5CDB8" />
  <polygon points="720,570 780,570 780,620 720,620" fill="#787878" />
  <polygon points="780,570 810,540 810,590 780,620" fill="#5C5C5C" />
  <polygon points="720,570 750,540 810,540 780,570" fill="#A8A8A8" />
  <polygon points="710,550 790,550 790,570 710,570" fill="#949494" />
  <polygon points="790,550 830,510 830,530 790,570" fill="#737373" />
  <polygon points="710,550 750,510 830,510 790,550" fill="#C2C2C2" />
  <polygon points="370,620 420,620 420,660 370,660" fill="#8F6782" />
  <polygon points="420,620 450,590 450,630 420,660" fill="#704C64" />
  <polygon points="370,620 400,590 450,590 420,620" fill="#B890AB" />
  <polygon points="380,590 410,590 410,620 380,620" fill="#A87D9C" />
  <polygon points="410,590 430,570 430,600 410,620" fill="#8A607D" />
  <polygon points="380,590 400,570 430,570 410,590" fill="#D1A9C4" />
  <circle cx="395" cy="640" r="12" fill="#4A3444" />
  <path d="M 120 750 Q 150 780 180 750 L 170 720 L 130 720 Z" fill="#AD8A6E" />
  <polygon points="150,680 170,710 130,710" fill="#FFF" />
  <rect x="148" y="710" width="4" height="20" fill="#5A3931" />
  <rect x="635" y="180" width="10" height="15" fill="#FFC966" rx="5" />
  <circle cx="637" cy="184" r="1.5" fill="#333" />
  <circle cx="643" cy="184" r="1.5" fill="#333" />
  <polygon points="280,172 265,185 290,172" fill="#ffffff" />
  <polygon points="280,172 265,185 290,172" fill="none" stroke="#e0e0e0" stroke-width="2" />
  <rect x="245.0" y="144" width="90" height="32" fill="#ffffff" rx="8" />
  <rect x="245.0" y="144" width="90" height="32" fill="none" stroke="#e0e0e0" stroke-width="2" rx="8" />
  <polygon points="278,172 265,185 292,172" fill="#ffffff" />
  <rect x="245.0" y="144" width="90" height="32" fill="#ffffff" rx="8" />
  <text x="290" y="164" font-family="sans-serif" font-weight="bold" font-size="13" fill="#6A495E" text-anchor="middle" letter-spacing="1">JAKARTA</text>
  <polygon points="440,352 425,365 450,352" fill="#ffffff" />
  <polygon points="440,352 425,365 450,352" fill="none" stroke="#e0e0e0" stroke-width="2" />
  <rect x="405.0" y="324" width="90" height="32" fill="#ffffff" rx="8" />
  <rect x="405.0" y="324" width="90" height="32" fill="none" stroke="#e0e0e0" stroke-width="2" rx="8" />
  <polygon points="438,352 425,365 452,352" fill="#ffffff" />
  <rect x="405.0" y="324" width="90" height="32" fill="#ffffff" rx="8" />
  <text x="450" y="344" font-family="sans-serif" font-weight="bold" font-size="13" fill="#6A495E" text-anchor="middle" letter-spacing="1">SEMARANG</text>
  <polygon points="610,162 595,175 620,162" fill="#ffffff" />
  <polygon points="610,162 595,175 620,162" fill="none" stroke="#e0e0e0" stroke-width="2" />
  <rect x="575.0" y="134" width="90" height="32" fill="#ffffff" rx="8" />
  <rect x="575.0" y="134" width="90" height="32" fill="none" stroke="#e0e0e0" stroke-width="2" rx="8" />
  <polygon points="608,162 595,175 622,162" fill="#ffffff" />
  <rect x="575.0" y="134" width="90" height="32" fill="#ffffff" rx="8" />
  <text x="620" y="154" font-family="sans-serif" font-weight="bold" font-size="13" fill="#6A495E" text-anchor="middle" letter-spacing="1">SURABAYA</text>
  <polygon points="840,312 825,325 850,312" fill="#ffffff" />
  <polygon points="840,312 825,325 850,312" fill="none" stroke="#e0e0e0" stroke-width="2" />
  <rect x="805.0" y="284" width="90" height="32" fill="#ffffff" rx="8" />
  <rect x="805.0" y="284" width="90" height="32" fill="none" stroke="#e0e0e0" stroke-width="2" rx="8" />
  <polygon points="838,312 825,325 852,312" fill="#ffffff" />
  <rect x="805.0" y="284" width="90" height="32" fill="#ffffff" rx="8" />
  <text x="850" y="304" font-family="sans-serif" font-weight="bold" font-size="13" fill="#6A495E" text-anchor="middle" letter-spacing="1">BALI</text>
  <polygon points="730,492 715,505 740,492" fill="#ffffff" />
  <polygon points="730,492 715,505 740,492" fill="none" stroke="#e0e0e0" stroke-width="2" />
  <rect x="690.5" y="464" width="99" height="32" fill="#ffffff" rx="8" />
  <rect x="690.5" y="464" width="99" height="32" fill="none" stroke="#e0e0e0" stroke-width="2" rx="8" />
  <polygon points="728,492 715,505 742,492" fill="#ffffff" />
  <rect x="690.5" y="464" width="99" height="32" fill="#ffffff" rx="8" />
  <text x="740" y="484" font-family="sans-serif" font-weight="bold" font-size="13" fill="#6A495E" text-anchor="middle" letter-spacing="1">PONTIANAK</text>
  <polygon points="380,552 365,565 390,552" fill="#ffffff" />
  <polygon points="380,552 365,565 390,552" fill="none" stroke="#e0e0e0" stroke-width="2" />
  <rect x="345.0" y="524" width="90" height="32" fill="#ffffff" rx="8" />
  <rect x="345.0" y="524" width="90" height="32" fill="none" stroke="#e0e0e0" stroke-width="2" rx="8" />
  <polygon points="378,552 365,565 392,552" fill="#ffffff" />
  <rect x="345.0" y="524" width="90" height="32" fill="#ffffff" rx="8" />
  <text x="390" y="544" font-family="sans-serif" font-weight="bold" font-size="13" fill="#6A495E" text-anchor="middle" letter-spacing="1">MANADO</text>
</svg>